<svg width="421" height="416" viewBox="0 0 421 416" fill="none" xmlns="http://www.w3.org/2000/svg">
<path fill-rule="evenodd" clip-rule="evenodd" d="M208.237 11.218L183.043 74.1968H321.606V11.218H208.237Z" fill="#39B295"/>
<path fill-rule="evenodd" clip-rule="evenodd" d="M94.8676 74.1968H208.237V11.218H94.8676V74.1968Z" fill="#59BBA8"/>
<path fill-rule="evenodd" clip-rule="evenodd" d="M0.39386 86.7932V338.708H88.5696L50.7803 36.4098C23.0679 36.4098 0.39386 59.0824 0.39386 86.7932Z" fill="url(#paint0_linear)"/>
<path fill-rule="evenodd" clip-rule="evenodd" d="M50.7803 36.4098V338.708L208.237 313.516V36.4098H50.7803Z" fill="#B72D33"/>
<path fill-rule="evenodd" clip-rule="evenodd" d="M12.4489 326.063V313.468H358.854V363.851H50.2393C29.4021 363.851 12.4489 346.899 12.4489 326.063Z" fill="url(#paint1_linear)"/>
<path fill-rule="evenodd" clip-rule="evenodd" d="M0.406318 338.708H0.39386C0.39386 338.519 0.394899 338.331 0.396972 338.142C0.394899 337.954 0.39386 337.765 0.39386 337.577L0.406602 337.564C1.01502 310.267 23.335 288.326 50.7803 288.326H396.102V307.517C396.102 310.83 393.416 313.517 390.102 313.517H371.992V381.96C371.992 385.274 369.306 387.96 365.992 387.96H50.7803C23.3307 387.96 1.00805 366.012 0.406318 338.708ZM25.5933 338.142C25.8942 351.795 37.0549 362.768 50.7803 362.768H346.799V313.517H50.7803C37.0549 313.517 25.8942 324.491 25.5933 338.142Z" fill="url(#paint2_linear)"/>
<g clip-path="url(#clip0)">
<rect x="93.9328" y="313.468" width="227.476" height="102" fill="url(#paint3_linear)"/>
<mask id="mask0" mask-type="alpha" maskUnits="userSpaceOnUse" x="93" y="313" width="229" height="103">
<rect x="93.9328" y="313.468" width="227.476" height="102" fill="white"/>
</mask>
<g mask="url(#mask0)">
<path opacity="0.67" d="M149.084 307.243L136.284 314.203V328.763L149.084 321.803V363.243H163.404V307.243H149.084ZM199.619 364.443C214.499 364.443 222.819 352.603 222.819 335.243C222.819 317.883 214.499 306.043 199.619 306.043C184.739 306.043 176.419 317.883 176.419 335.243C176.419 352.603 184.739 364.443 199.619 364.443ZM199.619 350.523C193.619 350.523 190.739 345.403 190.739 335.243C190.739 325.083 193.619 319.963 199.619 319.963C205.619 319.963 208.499 325.083 208.499 335.243C208.499 345.403 205.619 350.523 199.619 350.523ZM273.489 347.243C273.489 335.403 263.729 332.123 255.969 329.403C255.809 329.323 255.649 329.323 255.489 329.243V319.483C257.809 320.203 258.769 321.963 258.769 324.763H272.369C272.369 312.923 264.769 307.243 255.489 306.203V299.243H249.889V306.123C240.289 307.003 232.689 312.763 232.689 323.243C232.689 334.843 242.209 338.443 249.889 341.083V351.083C247.249 350.363 245.969 348.683 245.969 345.323H231.809C231.809 357.563 239.729 363.323 249.889 364.283V371.243H255.489V364.363C265.489 363.563 273.489 357.883 273.489 347.243ZM246.769 322.923C246.769 321.243 247.649 319.883 249.889 319.323V327.083C248.049 326.043 246.769 324.843 246.769 322.923ZM255.489 351.163V343.163C257.729 344.123 259.249 345.403 259.249 347.563C259.249 349.243 258.049 350.683 255.489 351.163Z" fill="url(#paint4_linear)"/>
</g>
</g>
<rect x="93.9328" width="227.476" height="162.958" fill="url(#paint5_linear)"/>
<path opacity="0.67" d="M145.611 26.7142L132.811 33.6742V48.2342L145.611 41.2742V82.7142H159.931V26.7142H145.611ZM196.146 83.9142C211.026 83.9142 219.346 72.0742 219.346 54.7142C219.346 37.3542 211.026 25.5142 196.146 25.5142C181.266 25.5142 172.946 37.3542 172.946 54.7142C172.946 72.0742 181.266 83.9142 196.146 83.9142ZM196.146 69.9942C190.146 69.9942 187.266 64.8742 187.266 54.7142C187.266 44.5542 190.146 39.4342 196.146 39.4342C202.146 39.4342 205.026 44.5542 205.026 54.7142C205.026 64.8742 202.146 69.9942 196.146 69.9942ZM270.016 66.7142C270.016 54.8742 260.256 51.5942 252.496 48.8742C252.336 48.7942 252.176 48.7942 252.016 48.7142V38.9542C254.336 39.6742 255.296 41.4342 255.296 44.2342H268.896C268.896 32.3942 261.296 26.7142 252.016 25.6742V18.7142H246.416V25.5942C236.816 26.4742 229.216 32.2342 229.216 42.7142C229.216 54.3142 238.736 57.9142 246.416 60.5542V70.5542C243.776 69.8342 242.496 68.1542 242.496 64.7942H228.336C228.336 77.0342 236.256 82.7942 246.416 83.7542V90.7142H252.016V83.8342C262.016 83.0342 270.016 77.3542 270.016 66.7142ZM243.296 42.3942C243.296 40.7142 244.176 39.3542 246.416 38.7942V46.5542C244.576 45.5142 243.296 44.3142 243.296 42.3942ZM252.016 70.6342V62.6342C254.256 63.5942 255.776 64.8742 255.776 67.0342C255.776 68.7142 254.576 70.1542 252.016 70.6342Z" fill="url(#paint6_linear)"/>
<path d="M49.7957 36.2129H390.102C393.416 36.2129 396.102 38.8992 396.102 42.2129V288.571H49.7957V36.2129Z" fill="url(#paint7_linear)"/>
<path d="M263.691 165.787C263.691 137.975 286.237 115.429 314.049 115.429H415C418.314 115.429 421 118.115 421 121.429V210.146C421 213.459 418.314 216.146 415 216.146H314.049C286.237 216.146 263.691 193.599 263.691 165.787Z" fill="url(#paint8_linear)"/>
<circle cx="313" cy="167" r="23" fill="url(#paint9_linear)"/>
<defs>
<linearGradient id="paint0_linear" x1="-10.0495" y1="120.975" x2="120.255" y2="229.801" gradientUnits="userSpaceOnUse">
<stop stop-color="#1ACBFD"/>
<stop offset="1" stop-color="#345AFF"/>
</linearGradient>
<linearGradient id="paint1_linear" x1="-349.788" y1="213.537" x2="-348.986" y2="362.986" gradientUnits="userSpaceOnUse">
<stop stop-color="#1ACBFD"/>
<stop offset="1" stop-color="#345AFF"/>
</linearGradient>
<linearGradient id="paint2_linear" x1="-266.607" y1="140.926" x2="-267.212" y2="379.844" gradientUnits="userSpaceOnUse">
<stop stop-color="#1ACBFD"/>
<stop offset="1" stop-color="#345AFF"/>
</linearGradient>
<linearGradient id="paint3_linear" x1="398.942" y1="355.48" x2="267.219" y2="182.503" gradientUnits="userSpaceOnUse">
<stop stop-color="#1CFFBE"/>
<stop offset="1" stop-color="#35E9F2"/>
</linearGradient>
<linearGradient id="paint4_linear" x1="-53.7904" y1="359.643" x2="153.311" y2="518.42" gradientUnits="userSpaceOnUse">
<stop stop-color="#17FAFF"/>
<stop offset="1" stop-color="#0093FF"/>
</linearGradient>
<linearGradient id="paint5_linear" x1="398.942" y1="67.1194" x2="184.768" y2="-108.923" gradientUnits="userSpaceOnUse">
<stop stop-color="#1CFFBE"/>
<stop offset="1" stop-color="#35E9F2"/>
</linearGradient>
<linearGradient id="paint6_linear" x1="-65.4509" y1="79.1147" x2="143.76" y2="246.432" gradientUnits="userSpaceOnUse">
<stop stop-color="#17FAFF"/>
<stop offset="1" stop-color="#0093FF"/>
</linearGradient>
<linearGradient id="paint7_linear" x1="-110.241" y1="104.945" x2="3.70749" y2="370.264" gradientUnits="userSpaceOnUse">
<stop stop-color="#1ACBFD"/>
<stop offset="1" stop-color="#345AFF"/>
</linearGradient>
<linearGradient id="paint8_linear" x1="217.437" y1="156.452" x2="284.213" y2="295.05" gradientUnits="userSpaceOnUse">
<stop stop-color="#1ACBFD"/>
<stop offset="1" stop-color="#345AFF"/>
</linearGradient>
<linearGradient id="paint9_linear" x1="350.077" y1="168.99" x2="308.057" y2="132.876" gradientUnits="userSpaceOnUse">
<stop stop-color="#FCE38A"/>
<stop offset="1" stop-color="#F38181"/>
</linearGradient>
<clipPath id="clip0">
<rect width="228" height="102" fill="white" transform="translate(93.9328 313.468)"/>
</clipPath>
</defs>
</svg>
