<svg width="768" height="514" viewBox="0 0 768 514" fill="none" xmlns="http://www.w3.org/2000/svg">
<circle cx="751.5" cy="497.5" r="16.5" fill="url(#paint0_linear)"/>
<circle cx="165" cy="45" r="45" fill="url(#paint1_linear)"/>
<circle cx="591" cy="51" r="13" fill="url(#paint2_linear)"/>
<circle cx="207.5" cy="491.5" r="20.5" fill="url(#paint3_linear)"/>
<path d="M142.729 32.0638L135.606 37.7369L137.186 46.6986L144.31 41.0255L148.807 66.532L157.621 64.9779L151.543 30.5096L142.729 32.0638ZM178.195 62.1117C187.354 60.4968 191.19 52.3063 189.306 41.6211C187.421 30.9359 181.016 24.5513 171.857 26.1662C162.698 27.7812 158.862 35.9717 160.746 46.6569C162.63 57.342 169.036 63.7267 178.195 62.1117ZM176.684 53.5439C172.991 54.1951 170.663 51.3563 169.56 45.1027C168.458 38.8492 169.674 35.3853 173.368 34.7341C177.061 34.0829 179.389 36.9217 180.492 43.1752C181.594 49.4288 180.377 52.8927 176.684 53.5439Z" fill="white"/>
<path d="M745.433 492.394L743.154 494.21L743.66 497.077L745.939 495.262L747.378 503.424L750.199 502.927L748.254 491.897L745.433 492.394ZM756.782 502.01C759.713 501.493 760.941 498.872 760.338 495.453C759.735 492.033 757.685 489.99 754.754 490.507C751.823 491.024 750.596 493.645 751.199 497.064C751.802 500.483 753.852 502.526 756.782 502.01ZM756.299 499.268C755.117 499.476 754.372 498.568 754.019 496.567C753.666 494.566 754.056 493.457 755.238 493.249C756.419 493.04 757.164 493.949 757.517 495.95C757.87 497.951 757.481 499.06 756.299 499.268Z" fill="white"/>
<path d="M212.683 499.684C214.699 495.728 211.996 492.971 209.867 490.741C209.827 490.687 209.773 490.66 209.733 490.606L211.395 487.345C212.048 487.98 212.069 488.732 211.592 489.667L216.136 491.982C218.152 488.026 216.58 484.835 213.656 482.907L214.841 480.582L212.97 479.628L211.798 481.927C208.441 480.587 204.921 481.218 203.137 484.719C201.162 488.595 203.73 491.419 205.847 493.608L204.144 496.95C203.385 496.26 203.243 495.48 203.815 494.358L199.084 491.947C197 496.037 198.666 499.31 201.897 501.36L200.712 503.686L202.583 504.639L203.754 502.34C207.232 503.775 210.872 503.239 212.683 499.684ZM207.896 487.009C208.182 486.448 208.707 486.143 209.551 486.338L208.23 488.93C207.792 488.27 207.569 487.651 207.896 487.009ZM206.002 497.93L207.364 495.257C207.949 495.959 208.239 496.645 207.871 497.367C207.585 497.928 206.939 498.205 206.002 497.93Z" fill="white"/>
<path d="M593.637 57.0139C594.981 54.3765 593.18 52.5381 591.76 51.0515C591.733 51.0155 591.697 50.9974 591.671 50.9614L592.779 48.7873C593.214 49.211 593.228 49.712 592.91 50.3357L595.939 51.8793C597.283 49.2419 596.235 47.1141 594.286 45.8292L595.076 44.2788L593.828 43.6433L593.048 45.1758C590.809 44.2822 588.463 44.7027 587.273 47.0371C585.957 49.6211 587.669 51.5035 589.08 52.9632L587.945 55.1907C587.438 54.7307 587.344 54.2112 587.725 53.4627L584.571 51.8556C583.182 54.5821 584.292 56.764 586.447 58.131L585.657 59.6814L586.904 60.317L587.685 58.7844C590.003 59.7412 592.43 59.384 593.637 57.0139ZM590.446 48.5639C590.636 48.1897 590.987 47.9866 591.549 48.1161L590.669 49.8447C590.377 49.4042 590.228 48.9916 590.446 48.5639ZM589.183 55.8441L590.091 54.0621C590.481 54.5302 590.674 54.9878 590.429 55.4689C590.238 55.8432 589.808 56.0277 589.183 55.8441Z" fill="white"/>
<path fill-rule="evenodd" clip-rule="evenodd" d="M278.79 295.074C278.596 295.074 278.408 295.098 278.215 295.103C275.7 282.708 265.183 273.224 252.29 272.262C247.792 250.72 228.697 234.538 205.818 234.538C202.001 234.538 198.294 235.001 194.737 235.851C184.66 210.741 160.106 193 131.392 193C113.176 193 96.6394 200.153 84.4003 211.783C80.5463 210.102 76.294 209.164 71.8201 209.164C56.3533 209.164 43.4997 220.312 40.8317 235.01C17.7591 238.243 0 258.052 0 282.016C0 308.239 21.2569 329.496 47.4786 329.496H278.79C288.295 329.496 296 321.79 296 312.286C296 302.78 288.295 295.074 278.79 295.074" fill="#F3F8FF"/>
<defs>
<linearGradient id="paint0_linear" x1="784.5" y1="497.5" x2="751.5" y2="464.5" gradientUnits="userSpaceOnUse">
<stop stop-color="#FF7676"/>
<stop offset="1" stop-color="#F54EA2"/>
</linearGradient>
<linearGradient id="paint1_linear" x1="109.341" y1="25.1766" x2="133.885" y2="95.4547" gradientUnits="userSpaceOnUse">
<stop stop-color="#1ACBFD"/>
<stop offset="1" stop-color="#345AFF"/>
</linearGradient>
<linearGradient id="paint2_linear" x1="611.957" y1="52.1247" x2="588.206" y2="31.7123" gradientUnits="userSpaceOnUse">
<stop stop-color="#FCE38A"/>
<stop offset="1" stop-color="#F38181"/>
</linearGradient>
<linearGradient id="paint3_linear" x1="166.5" y1="491.5" x2="207.5" y2="532.5" gradientUnits="userSpaceOnUse">
<stop stop-color="#43E695"/>
<stop offset="1" stop-color="#3BB2B8"/>
</linearGradient>
</defs>
</svg>
