<svg width="48" height="48" viewBox="0 0 48 48" fill="none" xmlns="http://www.w3.org/2000/svg">
<rect width="48" height="48" rx="4" fill="url(#paint0_linear)"/>
<path fill-rule="evenodd" clip-rule="evenodd" d="M9.41896 23.5516L19.3044 13.6662C20.0894 12.8812 21.4249 12.9397 22.2812 13.796L23.5563 15.0711L12.1193 26.5081C11.4182 27.2092 10.2555 27.1758 9.46391 26.4345C8.68479 25.5692 8.66411 24.3065 9.41896 23.5516Z" fill="white"/>
<path fill-rule="evenodd" clip-rule="evenodd" d="M26.8336 12.8522L25.2605 14.4252C25.2013 14.4844 25.1464 14.5481 25.0964 14.6141C25.0856 14.6281 25.0727 14.6409 25.0603 14.6533C25.0399 14.6737 25.0151 14.6858 24.9899 14.7014C24.9775 14.7114 24.9679 14.7266 24.9527 14.733L12.7177 26.968C12.6505 27.0352 12.5816 27.0977 12.5096 27.157C12.4864 27.177 12.4616 27.193 12.438 27.2134C12.3879 27.2506 12.3407 27.2883 12.2895 27.3211C12.2595 27.3415 12.2271 27.3588 12.1987 27.3776C12.1503 27.4068 12.1051 27.4369 12.0582 27.4621C12.0238 27.4806 11.9878 27.495 11.9534 27.5134C11.9082 27.5339 11.863 27.5575 11.8158 27.5791C11.7798 27.5936 11.7426 27.606 11.7062 27.62C11.6594 27.6389 11.6142 27.6561 11.5674 27.6686C11.5298 27.6814 11.491 27.6923 11.4519 27.7035C11.4067 27.7143 11.3599 27.7268 11.3147 27.7376C11.2739 27.7473 11.2347 27.7521 11.1927 27.7598C11.1475 27.7674 11.1019 27.7755 11.0535 27.7799C11.0144 27.7847 10.9736 27.788 10.9336 27.7912C10.8976 27.7929 10.8644 27.7973 10.8284 27.799L20.6489 37.6194C21.4728 38.4433 22.813 38.4418 23.6367 37.6181L37.6181 23.6367C38.4423 22.8125 38.4434 21.4728 37.6195 20.6489L29.821 12.8504C28.9971 12.0265 27.6577 12.028 26.8336 12.8522ZM31.3107 22.8266C30.4069 23.7304 28.9371 23.7336 28.0342 22.8307C27.1324 21.9289 27.1341 20.4575 28.0379 19.5537C28.9433 18.6483 30.413 18.6483 31.3148 19.5501C32.2177 20.453 32.2161 21.9212 31.3107 22.8266Z" fill="white"/>
<defs>
<linearGradient id="paint0_linear" x1="-24" y1="24" x2="24" y2="72" gradientUnits="userSpaceOnUse">
<stop stop-color="#43E695"/>
<stop offset="1" stop-color="#3BB2B8"/>
</linearGradient>
</defs>
</svg>
