<svg width="48" height="48" viewBox="0 0 48 48" fill="none" xmlns="http://www.w3.org/2000/svg">
<rect width="48" height="48" rx="4" fill="url(#paint0_linear)"/>
<mask id="mask0" mask-type="alpha" maskUnits="userSpaceOnUse" x="8" y="6" width="35" height="36">
<path fill-rule="evenodd" clip-rule="evenodd" d="M35.4313 12.0222L28.743 6L7.99999 29.0375L21.3766 41.0818L42.1196 18.0444L35.4313 12.0222Z" fill="white"/>
</mask>
<g mask="url(#mask0)">
<path fill-rule="evenodd" clip-rule="evenodd" d="M26.5508 30.6941L29.0992 27.8639C34.7863 21.5477 35.6063 15.3717 35.6969 13.0678C35.7066 12.8167 35.6103 12.5774 35.4249 12.4104C35.243 12.2467 34.9955 12.17 34.75 12.2023C32.4515 12.5181 26.3432 13.9325 20.6497 20.2559L18.0981 23.0897L17.2683 22.9759C15.6713 22.7688 14.0519 23.373 12.9577 24.5882L9.91353 27.9691C9.73426 28.1682 9.67694 28.4527 9.76268 28.702C9.85361 28.9544 10.0716 29.1328 10.3333 29.1655L13.0173 29.5329C13.7681 29.6373 14.4714 29.9604 15.0346 30.4675L16.2559 31.5671L14.7798 33.2065C14.5085 33.5078 14.5312 33.9667 14.8264 34.2325L15.8043 35.113C16.0995 35.3788 16.5574 35.3526 16.8287 35.0513L18.3048 33.412L19.5269 34.5124C20.0901 35.0195 20.4883 35.6816 20.6673 36.421L21.3133 39.0519C21.3731 39.3087 21.5768 39.51 21.8338 39.5709C22.0943 39.6333 22.3677 39.5434 22.547 39.3443L25.5912 35.9634C26.6853 34.7482 27.1136 33.0781 26.744 31.5079L26.5508 30.6941ZM26.6919 22.0405C25.667 21.1177 25.5814 19.535 26.504 18.5104C27.4298 17.4822 29.0127 17.4019 30.0376 18.3248C31.0634 19.2484 31.1455 20.8278 30.2197 21.856C29.2971 22.8807 27.7177 22.9641 26.6919 22.0405Z" fill="white"/>
</g>
<defs>
<linearGradient id="paint0_linear" x1="62.6894" y1="26.0764" x2="18.8422" y2="-11.6081" gradientUnits="userSpaceOnUse">
<stop stop-color="#FCE38A"/>
<stop offset="1" stop-color="#F38181"/>
</linearGradient>
</defs>
</svg>
