<svg width="48" height="48" viewBox="0 0 48 48" fill="none" xmlns="http://www.w3.org/2000/svg">
<rect width="48" height="48" rx="4" fill="url(#paint0_linear)"/>
<path fill-rule="evenodd" clip-rule="evenodd" d="M16.8756 32.6511C17.0058 32.2604 17.3525 32 17.7411 32H31.6686C32.1128 32 32.4938 32.339 32.5729 32.8049L32.989 35.2522C33.0077 35.3643 33.0039 35.4808 32.9673 35.5875C32.8797 35.8431 32.6575 36 32.4179 36H16.5965C16.4773 36 16.3585 35.9683 16.2603 35.897C16.0297 35.7305 15.9467 35.4305 16.0339 35.1701L16.8756 32.6511Z" fill="white"/>
<path fill-rule="evenodd" clip-rule="evenodd" d="M14.098 19.9303L18.592 13.8287L17.7271 11.7119C17.6508 11.5253 17.6969 11.3159 17.846 11.1697C17.9951 11.0236 18.2221 10.9657 18.4335 11.0201L22.6706 12.1049C23.0851 12.098 24.6402 12.1269 26.3653 12.8423C28.1879 13.5981 30.5516 15.2899 31.4599 19.056C32.7134 24.2551 31.4932 28.2241 30.7361 30H18.736L17.6649 29.0304C17.4707 28.8546 17.4383 28.5801 17.5869 28.3711C18.575 26.9812 20.9059 23.4815 21.807 21.3039C21.4767 21.4061 21.1027 21.472 20.7074 21.4535C20.1449 21.4269 19.6315 21.2402 19.1757 20.8981L17.5307 21.8912C17.0224 22.1977 16.3923 22.2922 15.8018 22.1503C15.2113 22.0084 14.7158 21.6436 14.4427 21.1488L14.0618 20.4593C13.968 20.29 13.9817 20.0879 14.098 19.9303ZM20.4074 16.5347H21.2007C21.5232 16.5347 21.7844 16.298 21.7844 16.0063C21.7844 15.7144 21.5232 15.4781 21.2007 15.4781H20.4074C20.0848 15.4781 19.8237 15.7144 19.8237 16.0063C19.8237 16.298 20.0848 16.5347 20.4074 16.5347Z" fill="white"/>
<defs>
<linearGradient id="paint0_linear" x1="72" y1="24" x2="24" y2="-24" gradientUnits="userSpaceOnUse">
<stop stop-color="#FF7676"/>
<stop offset="1" stop-color="#F54EA2"/>
</linearGradient>
</defs>
</svg>
